SplineFontDB: 3.0
FontName: Tarn
FullName: Tarn
FamilyName: Tarn
Weight: Regular
Copyright: Copyright (c) 2016, Matthew Tso
UComments: "2016-10-21: Created with FontForge (http://fontforge.org)"
Version: 001.000
ItalicAngle: 0
UnderlinePosition: 0
UnderlineWidth: 0
Ascent: 4
Descent: 1
InvalidEm: 0
LayerCount: 2
Layer: 0 0 "Back" 1
Layer: 1 0 "Fore" 0
XUID: [1021 690 1909671480 10221863]
StyleMap: 0x0000
FSType: 0
OS2Version: 0
OS2_WeightWidthSlopeOnly: 0
OS2_UseTypoMetrics: 1
CreationTime: 1477096778
ModificationTime: 1477102106
OS2TypoAscent: 0
OS2TypoAOffset: 1
OS2TypoDescent: 0
OS2TypoDOffset: 1
OS2TypoLinegap: 0
OS2WinAscent: 0
OS2WinAOffset: 1
OS2WinDescent: 0
OS2WinDOffset: 1
HheadAscent: 0
HheadAOffset: 1
HheadDescent: 0
HheadDOffset: 1
MarkAttachClasses: 1
DEI: 91125
Encoding: ISO8859-1
UnicodeInterp: none
NameList: AGL For New Fonts
DisplaySize: -48
AntiAlias: 1
FitToEm: 0
WinInfo: 0 16 11
BeginPrivate: 0
EndPrivate
Grid
-1 2 m 25
 6 2 l 1049
3 6 m 25
 3 -3 l 1049
2 6 m 25
 2 -3 l 1049
-1 1 m 25
 6 1 l 1049
-1 3 m 25
 6 3 l 1049
4 6 m 25
 4 -3 l 1049
1 6 m 25
 1 -3 l 1049
EndSplineSet
BeginChars: 256 53

StartChar: A
Encoding: 65 65 0
Width: 5
VWidth: 0
Flags: W
HStem: 0 21G<1 2 3 4> 1 1<2 3> 3 1<2 3>
VStem: 1 1<0 1 2 3> 3 1<0 1 2 3>
LayerCount: 2
Fore
SplineSet
3 2 m 1x78
 3 3 l 1
 2 3 l 1
 2 2 l 1
 3 2 l 1x78
3 4 m 1
 3 3 l 1
 4 3 l 1x38
 4 0 l 1
 3 0 l 1x98
 3 1 l 1
 2 1 l 1x58
 2 0 l 1
 1 0 l 1x98
 1 3 l 5
 2 3 l 1
 2 4 l 1
 3 4 l 1
EndSplineSet
Validated: 5
EndChar

StartChar: B
Encoding: 66 66 1
Width: 5
VWidth: 0
Flags: W
HStem: -16 20G<1 3> 0 1<2 3>
VStem: 1 1<1 2> 3 1<1 2>
LayerCount: 2
Fore
SplineSet
3 2 m 1x70
 2 2 l 1
 2 1 l 1
 3 1 l 1
 3 2 l 1x70
3 4 m 1xb0
 3 3 l 1
 4 3 l 1
 4 0 l 1
 1 0 l 1x70
 1 4 l 5
 3 4 l 1xb0
EndSplineSet
Validated: 1
EndChar

StartChar: C
Encoding: 67 67 2
Width: 5
VWidth: 0
Flags: W
HStem: 0 1<2 4> 3 1<2 4>
VStem: 1 1<1 3>
LayerCount: 2
Fore
SplineSet
4 4 m 1
 4 3 l 1
 2 3 l 1
 2 1 l 1
 4 1 l 1
 4 0 l 1
 1 0 l 1
 1 4 l 1
 4 4 l 1
EndSplineSet
Validated: 1
EndChar

StartChar: T
Encoding: 84 84 3
Width: 5
VWidth: 0
Flags: W
HStem: 0 21G<2 3> 0 21G<2 3> 3 1<1 2 3 4>
VStem: 2 1<0 3>
LayerCount: 2
Fore
SplineSet
4 4 m 1x30
 4 3 l 1
 3 3 l 1x30
 3 0 l 1
 2 0 l 1x90
 2 3 l 1
 1 3 l 1
 1 4 l 1
 4 4 l 1x30
EndSplineSet
Validated: 1
EndChar

StartChar: D
Encoding: 68 68 4
Width: 5
VWidth: 0
HStem: -17 20G<3 4> 0 1<2 3> 3 1<2 3>
VStem: 1 2<0 1 3 4> 3 1<1 3>
LayerCount: 2
Fore
SplineSet
3 4 m 29x70
 3 3 l 25x90
 2 3 l 25
 2 1 l 25
 3 1 l 25x70
 3 3 l 25x90
 4 3 l 25x88
 4 1 l 25x48
 3 1 l 25
 3 0 l 25
 1 0 l 25
 1 4 l 25
 3 4 l 29x70
EndSplineSet
Validated: 5
EndChar

StartChar: E
Encoding: 69 69 5
Width: 5
VWidth: 0
HStem: 0 1<2 4> 2 2<2 4>
VStem: 1 3<0 1 2 4>
LayerCount: 2
Fore
SplineSet
4 4 m 29
 4 2 l 25
 2 2 l 25
 2 1 l 25
 4 1 l 25
 4 0 l 25
 1 0 l 25
 1 4 l 25
 4 4 l 29
EndSplineSet
Validated: 1
EndChar

StartChar: F
Encoding: 70 70 6
Width: 5
VWidth: 0
HStem: 0 21G<1 2> 0 21G<1 2> 1 1<2 4> 3 1<2 4>
VStem: 1 1<0 1 2 3>
LayerCount: 2
Fore
SplineSet
4 4 m 29x18
 4 3 l 25
 2 3 l 25
 2 2 l 25
 4 2 l 25
 4 1 l 25
 2 1 l 25x38
 2 0 l 25
 1 0 l 25x88
 1 4 l 25
 4 4 l 29x18
EndSplineSet
Validated: 1
EndChar

StartChar: G
Encoding: 71 71 7
Width: 5
VWidth: 0
HStem: 0 1<2 3> 3 1<2 4>
VStem: 1 1<1 3> 3 1<1 2>
LayerCount: 2
Fore
SplineSet
4 4 m 29
 4 3 l 25
 2 3 l 25
 2 1 l 25
 3 1 l 25
 3 2 l 25
 4 2 l 25
 4 0 l 25
 1 0 l 25
 1 4 l 25
 4 4 l 29
EndSplineSet
Validated: 1
EndChar

StartChar: H
Encoding: 72 72 8
Width: 5
VWidth: 0
HStem: -16 20G<1 2 3 4> 0 21G<1 2 3 4> 0 21G<1 2 3 4> 2 1<2 3>
VStem: 1 1<0 2 3 4> 3 1<0 2 3 4>
LayerCount: 2
Fore
SplineSet
4 4 m 29x8c
 4 0 l 25
 3 0 l 25x4c
 3 2 l 25
 2 2 l 25x1c
 2 0 l 25
 1 0 l 25x4c
 1 4 l 25
 2 4 l 25x8c
 2 3 l 25
 3 3 l 25x1c
 3 4 l 25
 4 4 l 29x8c
EndSplineSet
Validated: 1
EndChar

StartChar: I
Encoding: 73 73 9
Width: 5
VWidth: 0
HStem: 0 1<1 2 3 4> 3 1<1 2 3 4>
VStem: 2 1<1 3>
LayerCount: 2
Fore
SplineSet
4 4 m 29
 4 3 l 25
 3 3 l 25
 3 1 l 25
 4 1 l 25
 4 0 l 25
 1 0 l 25
 1 1 l 25
 2 1 l 25
 2 3 l 25
 1 3 l 25
 1 4 l 25
 4 4 l 29
EndSplineSet
Validated: 1
EndChar

StartChar: J
Encoding: 74 74 10
Width: 5
VWidth: 0
HStem: -16 20G<3 4> 0 1<2 3>
VStem: 1 1<1 2> 3 1<1 4>
LayerCount: 2
Fore
SplineSet
4 4 m 29xb0
 4 0 l 25
 1 0 l 25
 1 2 l 25
 2 2 l 25
 2 1 l 25
 3 1 l 25x70
 3 4 l 25
 4 4 l 29xb0
EndSplineSet
Validated: 1
EndChar

StartChar: K
Encoding: 75 75 11
Width: 5
VWidth: 0
HStem: 0 21G<1 2 3 4> 0 21G<1 2 3 4> 3 1<3 4>
VStem: 1 1<0 2 3 4> 3 1<0 2 3 4>
LayerCount: 2
Fore
SplineSet
3 3 m 29x38
 3 2 l 25
 2 2 l 25
 2 0 l 25
 1 0 l 25x98
 1 4 l 25
 2 4 l 25
 2 3 l 25
 3 3 l 29x38
4 2 m 25
 4 0 l 25
 3 0 l 25
 3 2 l 25
 4 2 l 25
4 4 m 25x38
 4 3 l 25
 3 3 l 25
 3 4 l 25
 4 4 l 25x38
EndSplineSet
Validated: 5
EndChar

StartChar: L
Encoding: 76 76 12
Width: 5
VWidth: 0
HStem: -16 20G<1 2> 0 1<2 4>
VStem: 1 1<1 4>
LayerCount: 2
Fore
SplineSet
2 4 m 29xa0
 2 1 l 25
 4 1 l 25
 4 0 l 25
 1 0 l 25x60
 1 4 l 25
 2 4 l 29xa0
EndSplineSet
Validated: 1
EndChar

StartChar: M
Encoding: 77 77 13
Width: 5
VWidth: 0
HStem: -16 20G<1 4> 0 21G<1 2 3 4> 0 21G<1 2 3 4>
VStem: 1 1<0 1> 3 1<0 1>
LayerCount: 2
Fore
SplineSet
4 4 m 29x98
 4 0 l 25
 3 0 l 25
 3 1 l 25
 2 1 l 25
 2 0 l 25
 1 0 l 25x58
 1 4 l 25
 4 4 l 29x98
EndSplineSet
Validated: 1
EndChar

StartChar: N
Encoding: 78 78 14
Width: 5
VWidth: 0
HStem: 0 21G<1 2 3 4> 0 21G<1 2 3 4> 3 1<2 3>
VStem: 1 1<0 3> 3 1<0 3>
LayerCount: 2
Fore
SplineSet
4 4 m 29x38
 4 0 l 25
 3 0 l 25x98
 3 3 l 25
 2 3 l 25x38
 2 0 l 25
 1 0 l 25x98
 1 4 l 25
 4 4 l 29x38
EndSplineSet
Validated: 1
EndChar

StartChar: O
Encoding: 79 79 15
Width: 5
VWidth: 0
HStem: 0 1<2 3> 3 1<2 3>
VStem: 1 1<1 3> 3 1<1 3>
LayerCount: 2
Fore
SplineSet
3 3 m 29
 2 3 l 25
 2 1 l 25
 3 1 l 25
 3 3 l 29
4 4 m 25
 4 0 l 25
 1 0 l 25
 1 4 l 25
 4 4 l 25
EndSplineSet
Validated: 1
EndChar

StartChar: P
Encoding: 80 80 16
Width: 5
VWidth: 0
HStem: 0 21G<1 2> 0 21G<1 2> 1 1<2 3> 3 1<2 3>
VStem: 1 1<0 1 2 3>
LayerCount: 2
Fore
SplineSet
1 4 m 1053,0,-1
3 3 m 25,1,-1
 2 3 l 25,2,-1
 2 2 l 25,3,-1
 3 2 l 25,4,-1
 3 3 l 25,1,-1
4 4 m 25,5,-1
 4 1 l 25,6,-1
 2 1 l 25,7,-1
 2 0 l 25,8,-1
 1 0 l 25,9,-1
 1 4 l 25,10,-1
 4 4 l 25,5,-1
EndSplineSet
Validated: 1
EndChar

StartChar: Q
Encoding: 81 81 17
Width: 5
VWidth: 0
HStem: 0 1<2 3> 1 21G<1 2 3 4> 1 21G<1 2 3 4> 3 1<2 3>
VStem: 1 1<1 3> 2 1<0 1> 3 1<1 3>
LayerCount: 2
Fore
SplineSet
3 1 m 25x84
 3 0 l 25
 2 0 l 25x84
 2 1 l 25x88
 3 1 l 25x84
4 4 m 25x1a
 4 1 l 25x4a
 3 1 l 25x84
 3 3 l 25
 2 3 l 25
 2 1 l 25x9a
 1 1 l 25x4a
 1 4 l 25
 4 4 l 25x1a
EndSplineSet
Validated: 5
EndChar

StartChar: R
Encoding: 82 82 18
Width: 5
VWidth: 0
HStem: 0 1<3 4> 3 1<2 3>
VStem: 1 1<0 1 2 3> 3 1<0 1 2 3>
LayerCount: 2
Fore
SplineSet
3 3 m 25
 2 3 l 25
 2 2 l 25
 3 2 l 25
 3 3 l 25
4 4 m 1
 4 2 l 25
 3 2 l 25
 3 1 l 25
 4 1 l 25
 4 0 l 25
 3 0 l 25
 3 1 l 25
 2 1 l 25
 2 0 l 1
 1 0 l 1
 1 4 l 1
 4 4 l 1
EndSplineSet
Validated: 5
EndChar

StartChar: S
Encoding: 83 83 19
Width: 5
VWidth: 0
HStem: 0 1<1 3> 2 2<1 3> 3 1<3 4>
VStem: 3 1<1 2>
LayerCount: 2
Fore
SplineSet
4 2 m 29xd0
 4 0 l 25
 1 0 l 25
 1 1 l 25
 3 1 l 25
 3 2 l 25
 4 2 l 29xd0
4 4 m 25xb0
 4 3 l 25
 3 3 l 25xb0
 3 2 l 25
 1 2 l 25
 1 4 l 25xd0
 4 4 l 25xb0
EndSplineSet
Validated: 5
EndChar

StartChar: U
Encoding: 85 85 20
Width: 5
VWidth: 0
HStem: -16 20G<1 2 3 4> 0 1<2 3>
VStem: 1 1<1 4> 3 1<1 4>
LayerCount: 2
Fore
SplineSet
4 4 m 29xb0
 4 0 l 25
 1 0 l 25x70
 1 4 l 25
 2 4 l 25xb0
 2 1 l 25
 3 1 l 25x70
 3 4 l 25
 4 4 l 29xb0
EndSplineSet
Validated: 1
EndChar

StartChar: V
Encoding: 86 86 21
Width: 5
VWidth: 0
HStem: -16 20G<1 2 3 4> 0 1<2 3> 1 21G<1 2 3 4> 1 21G<1 2 3 4>
VStem: 1 1<1 4> 2 1<0 1> 3 1<1 4>
LayerCount: 2
Fore
SplineSet
2 4 m 29x88
 2 1 l 25x48
 1 1 l 25x28
 1 4 l 25
 2 4 l 29x88
3 1 m 25x44
 3 0 l 25
 2 0 l 25x44
 2 1 l 25x48
 3 1 l 25x44
4 4 m 25x82
 4 1 l 25x22
 3 1 l 25x44
 3 4 l 25
 4 4 l 25x82
EndSplineSet
Validated: 5
EndChar

StartChar: W
Encoding: 87 87 22
Width: 5
VWidth: 0
HStem: -16 20G<1 2 3 4> 0 21G<1 4> 0 21G<1 4>
VStem: 1 1<3 4> 3 1<3 4>
LayerCount: 2
Fore
SplineSet
4 4 m 29x98
 4 0 l 25
 1 0 l 25x58
 1 4 l 25
 2 4 l 25
 2 3 l 25
 3 3 l 25
 3 4 l 25
 4 4 l 29x98
EndSplineSet
Validated: 1
EndChar

StartChar: X
Encoding: 88 88 23
Width: 5
VWidth: 0
HStem: 0 2<1 2 3 4> 3 1<1 2 3 4>
VStem: 1 1<0 2 3 4> 3 1<0 2 3 4>
LayerCount: 2
Fore
SplineSet
2 4 m 29
 2 3 l 25
 1 3 l 25
 1 4 l 25
 2 4 l 29
4 4 m 25
 4 3 l 25
 3 3 l 25
 3 4 l 25
 4 4 l 25
3 3 m 25
 3 2 l 25
 2 2 l 25
 2 3 l 25
 3 3 l 25
2 2 m 25
 2 0 l 25
 1 0 l 25
 1 2 l 25
 2 2 l 25
4 2 m 25
 4 0 l 25
 3 0 l 25
 3 2 l 25
 4 2 l 25
EndSplineSet
Validated: 5
EndChar

StartChar: Y
Encoding: 89 89 24
Width: 5
VWidth: 0
HStem: 0 21G<2 3> 0 21G<2 3> 2 2<1 2 3 4>
VStem: 1 1<2 4> 2 1<0 2> 3 1<2 4>
LayerCount: 2
Fore
SplineSet
2 4 m 29x30
 2 2 l 25
 1 2 l 25
 1 4 l 25
 2 4 l 29x30
3 2 m 25x28
 3 0 l 25
 2 0 l 25x88
 2 2 l 25x30
 3 2 l 25x28
4 4 m 25x24
 4 2 l 25x24
 3 2 l 25x28
 3 4 l 25
 4 4 l 25x24
EndSplineSet
Validated: 5
EndChar

StartChar: Z
Encoding: 90 90 25
Width: 5
VWidth: 0
HStem: 0 1<1 2 3 4>
VStem: 3 1<2 3>
LayerCount: 2
Fore
SplineSet
3 2 m 29
 3 1 l 25
 4 1 l 25
 4 0 l 25
 1 0 l 25
 1 1 l 25
 2 1 l 25
 2 2 l 25
 3 2 l 29
4 4 m 25
 4 2 l 25
 3 2 l 25
 3 3 l 25
 1 3 l 25
 1 4 l 25
 4 4 l 25
EndSplineSet
Validated: 5
EndChar

StartChar: bracketleft
Encoding: 91 91 26
Width: 5
VWidth: 0
HStem: 0 1<3 4> 3 1<3 4>
VStem: 2 2<0 1 3 4>
LayerCount: 2
Fore
SplineSet
4 4 m 29
 4 3 l 25
 3 3 l 25
 3 1 l 25
 4 1 l 25
 4 0 l 25
 2 0 l 25
 2 4 l 25
 4 4 l 29
EndSplineSet
Validated: 1
EndChar

StartChar: bracketright
Encoding: 93 93 27
Width: 5
VWidth: 0
HStem: 0 1<1 2> 3 1<1 2>
VStem: 1 2<0 1 3 4>
LayerCount: 2
Fore
SplineSet
3 4 m 29
 3 0 l 25
 1 0 l 25
 1 1 l 25
 2 1 l 25
 2 3 l 25
 1 3 l 25
 1 4 l 25
 3 4 l 29
EndSplineSet
Validated: 1
EndChar

StartChar: underscore
Encoding: 95 95 28
Width: 5
VWidth: 0
HStem: 0 1<1 4>
LayerCount: 2
Fore
SplineSet
4 1 m 29
 4 0 l 25
 1 0 l 25
 1 1 l 25
 4 1 l 29
EndSplineSet
Validated: 1
EndChar

StartChar: bar
Encoding: 124 124 29
Width: 5
VWidth: 0
HStem: -16 20G<2 3> 0 21G<2 3> 0 21G<2 3>
VStem: 2 1<0 4>
LayerCount: 2
Fore
SplineSet
3 4 m 29x90
 3 0 l 25
 2 0 l 25x50
 2 4 l 25
 3 4 l 29x90
EndSplineSet
Validated: 1
EndChar

StartChar: zero
Encoding: 48 48 30
Width: 5
VWidth: 0
HStem: 0 1<2 3> 3 1<2 3>
VStem: 1 1<1 3> 3 1<1 3>
LayerCount: 2
Fore
SplineSet
3 3 m 29
 2 3 l 25
 2 1 l 25
 3 1 l 25
 3 3 l 29
4 4 m 25
 4 0 l 25
 1 0 l 25
 1 4 l 25
 4 4 l 25
EndSplineSet
Validated: 1
EndChar

StartChar: one
Encoding: 49 49 31
Width: 5
VWidth: 0
HStem: 0 1<1 2 3 4>
VStem: 2 1<1 3>
LayerCount: 2
Fore
SplineSet
3 4 m 29
 3 1 l 25
 4 1 l 25
 4 0 l 25
 1 0 l 25
 1 1 l 25
 2 1 l 25
 2 3 l 25
 1 3 l 25
 1 4 l 25
 3 4 l 29
EndSplineSet
Validated: 1
EndChar

StartChar: two
Encoding: 50 50 32
Width: 5
VWidth: 0
HStem: 0 2<1 3> 0 1<3 4> 3 1<1 3>
VStem: 3 1<2 3>
LayerCount: 2
Fore
SplineSet
3 2 m 29xb0
 3 1 l 25
 4 1 l 25
 4 0 l 25x70
 1 0 l 25
 1 2 l 25
 3 2 l 29xb0
4 4 m 25
 4 2 l 25
 3 2 l 25xb0
 3 3 l 25
 1 3 l 25
 1 4 l 25
 4 4 l 25
EndSplineSet
Validated: 5
EndChar

StartChar: three
Encoding: 51 51 33
Width: 5
VWidth: 0
HStem: 0 1<1 3> 3 1<1 2>
VStem: 3 1<1 2>
LayerCount: 2
Fore
SplineSet
4 4 m 29
 4 0 l 25
 1 0 l 25
 1 1 l 25
 3 1 l 25
 3 2 l 25
 2 2 l 25
 2 3 l 25
 1 3 l 25
 1 4 l 25
 4 4 l 29
EndSplineSet
Validated: 1
EndChar

StartChar: four
Encoding: 52 52 34
Width: 5
VWidth: 0
HStem: -16 20G<1 2 3 4> 0 21G<3 4> 0 21G<3 4> 1 1<2 3>
VStem: 1 1<2 4> 3 1<0 1 2 4>
LayerCount: 2
Fore
SplineSet
4 4 m 29x8c
 4 0 l 25
 3 0 l 25x4c
 3 1 l 25
 1 1 l 25x1c
 1 4 l 25
 2 4 l 25x8c
 2 2 l 25
 3 2 l 25x1c
 3 4 l 25
 4 4 l 29x8c
EndSplineSet
Validated: 1
EndChar

StartChar: five
Encoding: 53 53 35
Width: 5
VWidth: 0
HStem: 0 2<2 4> 0 1<1 2> 3 1<2 4>
VStem: 1 1<2 3>
LayerCount: 2
Fore
SplineSet
4 2 m 29xb0
 4 0 l 25xb0
 1 0 l 25
 1 1 l 25
 2 1 l 25x70
 2 2 l 25
 4 2 l 29xb0
4 4 m 25
 4 3 l 25
 2 3 l 25
 2 2 l 25
 1 2 l 25
 1 4 l 25
 4 4 l 25
EndSplineSet
Validated: 5
EndChar

StartChar: six
Encoding: 54 54 36
Width: 5
VWidth: 0
HStem: 0 2<2 4> 3 1<2 4>
VStem: 1 3<0 2 3 4>
LayerCount: 2
Fore
SplineSet
4 4 m 29
 4 3 l 25
 2 3 l 25
 2 2 l 25
 4 2 l 25
 4 0 l 25
 1 0 l 25
 1 4 l 25
 4 4 l 29
EndSplineSet
Validated: 1
EndChar

StartChar: seven
Encoding: 55 55 37
Width: 5
VWidth: 0
HStem: 0 21G<3 4> 0 21G<3 4> 3 1<1 3>
VStem: 3 1<0 3>
LayerCount: 2
Fore
SplineSet
4 4 m 29x30
 4 0 l 25
 3 0 l 25x90
 3 3 l 25
 1 3 l 25
 1 4 l 25
 4 4 l 29x30
EndSplineSet
Validated: 1
EndChar

StartChar: eight
Encoding: 56 56 38
Width: 5
VWidth: 0
Flags: W
HStem: 0 2<1 2 3 4> 3 1<1 2 3 4>
VStem: 1 1<1 2> 3 1<1 2>
LayerCount: 2
Fore
SplineSet
4 2 m 29
 4 0 l 25
 1 0 l 25
 1 2 l 25
 2 2 l 25
 2 1 l 25
 3 1 l 25
 3 2 l 25
 4 2 l 29
4 4 m 25
 4 3 l 25
 3 3 l 25
 3 2 l 25
 2 2 l 25
 2 3 l 25
 1 3 l 25
 1 4 l 25
 4 4 l 25
EndSplineSet
Validated: 5
EndChar

StartChar: nine
Encoding: 57 57 39
Width: 5
VWidth: 0
HStem: 0 21G<3 4> 0 21G<3 4> 1 1<2 3> 3 1<2 3>
VStem: 1 1<2 3> 3 1<0 1 2 3>
LayerCount: 2
Fore
SplineSet
3 3 m 29x3c
 2 3 l 25
 2 2 l 25
 3 2 l 25
 3 3 l 29x3c
4 4 m 25
 4 0 l 25
 3 0 l 25x8c
 3 1 l 25
 1 1 l 25
 1 4 l 25
 4 4 l 25
EndSplineSet
Validated: 1
EndChar

StartChar: colon
Encoding: 58 58 40
Width: 5
VWidth: 0
Flags: HW
HStem: 1 1<2 3> 3 1<2 3>
VStem: 2 1<1 2 3 4>
LayerCount: 2
Fore
SplineSet
3 1 m 25
 3 0 l 25
 2 0 l 25
 2 1 l 25
 3 1 l 25
3 3 m 25
 3 2 l 25
 2 2 l 25
 2 3 l 25
 3 3 l 25
EndSplineSet
EndChar

StartChar: semicolon
Encoding: 59 59 41
Width: 5
VWidth: 0
HStem: 0 21G<2 3> 0 21G<2 3> 3 1<2 3>
VStem: 2 1<0 2 3 4>
LayerCount: 2
Fore
SplineSet
3 2 m 29x90
 3 0 l 25
 2 0 l 25
 2 2 l 25
 3 2 l 29x90
3 4 m 25x30
 3 3 l 25
 2 3 l 25
 2 4 l 25
 3 4 l 25x30
EndSplineSet
Validated: 1
EndChar

StartChar: equal
Encoding: 61 61 42
Width: 5
VWidth: 0
HStem: 0 1<1 4> 2 1<1 4>
LayerCount: 2
Fore
SplineSet
4 1 m 29
 4 0 l 25
 1 0 l 25
 1 1 l 25
 4 1 l 29
4 3 m 25
 4 2 l 25
 1 2 l 25
 1 3 l 25
 4 3 l 25
EndSplineSet
Validated: 1
EndChar

StartChar: question
Encoding: 63 63 43
Width: 5
VWidth: 0
Flags: W
HStem: 0 1<2 3> 1 21G<3 4> 1 21G<3 4> 3 1<2 3>
VStem: 1 1<2 3> 2 1<0 1> 3 1<1 3>
LayerCount: 2
Fore
SplineSet
4 4 m 25x9a
 4 1 l 1x4a
 3 1 l 25x84
 3 3 l 1
 2 3 l 25
 2 2 l 25
 1 2 l 25
 1 4 l 25
 4 4 l 25x9a
3 1 m 1x84
 3 0 l 1
 2 0 l 5
 2 1 l 1
 3 1 l 1x84
EndSplineSet
Validated: 5
EndChar

StartChar: exclam
Encoding: 33 33 44
Width: 5
VWidth: 0
HStem: -16 20G<2 3> 0 1<2 3>
VStem: 2 1<0 1 2 4>
LayerCount: 2
Fore
SplineSet
3 1 m 29x60
 3 0 l 25
 2 0 l 25
 2 1 l 25
 3 1 l 29x60
3 4 m 25xa0
 3 2 l 25
 2 2 l 25
 2 4 l 25
 3 4 l 25xa0
EndSplineSet
Validated: 1
EndChar

StartChar: quotedbl
Encoding: 34 34 45
Width: 5
VWidth: 0
HStem: 2 2<1 2 3 4>
VStem: 1 1<2 4> 3 1<2 4>
LayerCount: 2
Fore
SplineSet
2 4 m 29
 2 2 l 25
 1 2 l 25
 1 4 l 25
 2 4 l 29
4 4 m 25
 4 2 l 25
 3 2 l 25
 3 4 l 25
 4 4 l 25
EndSplineSet
Validated: 1
EndChar

StartChar: quotesingle
Encoding: 39 39 46
Width: 5
VWidth: 0
HStem: -16 20G<2 3>
VStem: 2 1<2 4>
LayerCount: 2
Fore
SplineSet
3 4 m 29
 3 2 l 25
 2 2 l 25
 2 4 l 25
 3 4 l 29
EndSplineSet
Validated: 1
EndChar

StartChar: parenleft
Encoding: 40 40 47
Width: 5
VWidth: 0
HStem: 0 1<3 4> 3 1<3 4>
VStem: 2 1<1 3> 3 1<0 1 3 4>
LayerCount: 2
Fore
SplineSet
4 4 m 29xd0
 4 3 l 25xd0
 3 3 l 25
 3 1 l 25xe0
 4 1 l 25
 4 0 l 25
 3 0 l 25xd0
 3 1 l 25
 2 1 l 25
 2 3 l 25
 3 3 l 25xe0
 3 4 l 25
 4 4 l 29xd0
EndSplineSet
Validated: 5
EndChar

StartChar: parenright
Encoding: 41 41 48
Width: 5
VWidth: 0
HStem: 0 1<1 2> 3 1<1 2>
VStem: 1 1<0 1 3 4>
LayerCount: 2
Fore
SplineSet
2 4 m 29
 2 3 l 25
 3 3 l 25
 3 1 l 25
 2 1 l 25
 2 0 l 25
 1 0 l 25
 1 1 l 25
 2 1 l 25
 2 3 l 25
 1 3 l 25
 1 4 l 25
 2 4 l 29
EndSplineSet
Validated: 5
EndChar

StartChar: plus
Encoding: 43 43 49
Width: 5
VWidth: 0
HStem: -17 20G<2 3> 0 21G<2 3> 0 21G<2 3> 1 1<1 2 3 4>
VStem: 2 1<0 1 2 3>
LayerCount: 2
Fore
SplineSet
3 3 m 29x88
 3 2 l 25
 4 2 l 25
 4 1 l 25
 3 1 l 25x18
 3 0 l 25
 2 0 l 25x48
 2 1 l 25
 1 1 l 25
 1 2 l 25
 2 2 l 25x18
 2 3 l 25
 3 3 l 29x88
EndSplineSet
Validated: 1
EndChar

StartChar: comma
Encoding: 44 44 50
Width: 5
VWidth: 0
HStem: 0 1<1 2> 1 1<2 3>
VStem: 1 1<0 1> 2 1<1 2>
LayerCount: 2
Fore
SplineSet
3 2 m 29x50
 3 1 l 25x50
 2 1 l 25
 2 0 l 25
 1 0 l 25
 1 1 l 25
 2 1 l 25xa0
 2 2 l 25
 3 2 l 29x50
EndSplineSet
Validated: 5
EndChar

StartChar: hyphen
Encoding: 45 45 51
Width: 5
VWidth: 0
HStem: 1 1<1 3>
LayerCount: 2
Fore
SplineSet
3 2 m 29
 3 1 l 25
 1 1 l 25
 1 2 l 25
 3 2 l 29
EndSplineSet
Validated: 1
EndChar

StartChar: period
Encoding: 46 46 52
Width: 5
VWidth: 0
HStem: 0 1<2 3>
VStem: 2 1<0 1>
LayerCount: 2
Fore
SplineSet
3 1 m 29
 3 0 l 25
 2 0 l 25
 2 1 l 25
 3 1 l 29
EndSplineSet
Validated: 1
EndChar
